<svg width="103" height="91" viewBox="0 0 103 91" fill="none" xmlns="http://www.w3.org/2000/svg">
<path fill-rule="evenodd" clip-rule="evenodd" d="M51.4729 38.8476C49.6074 37.377 47.8626 36.5008 46.4778 35.9126C33.2123 30.34 22.7285 39.2817 16.145 50.0092C14.3795 52.8826 12.6446 57.8844 13.0099 62.1078C13.2654 65.0756 14.5338 67.6635 17.4149 68.9974C20.5502 70.4634 24.4205 69.7761 28.2191 68.0095C33.7152 65.4588 39.0701 60.6734 41.6972 57.469C44.7263 53.7719 48.7829 47.5657 51.9436 41.0045C53.8309 42.7491 55.7934 45.1526 57.5759 48.5423C58.3736 50.0461 58.8874 51.9591 59.153 54.0484C56.0193 54.7286 52.8803 56.0589 49.8839 58.0787C47.3675 59.7802 42.7555 64.3432 40.5014 68.8737C38.8948 72.109 38.509 75.3265 40.5387 77.633C43.0636 80.4936 46.1173 80.5455 49.0446 79.1969C53.1675 77.3001 57.0167 72.5199 58.4667 69.4726C60.1519 65.9263 60.9974 60.2264 60.592 55.1493C71.3015 53.408 81.7029 59.5542 85.184 71.2926C85.2913 71.6406 85.665 71.8429 86.018 71.7459C86.3741 71.637 86.578 71.2573 86.4707 70.9093C82.785 58.4902 71.7859 51.9668 60.4513 53.796C60.1634 51.5731 59.6148 49.523 58.7637 47.9155C56.7977 44.1828 54.6219 41.5817 52.5424 39.7345C53.1136 38.4953 53.6488 37.2465 54.1369 35.9978C56.3321 30.3913 57.5177 24.8975 56.6129 20.8361C54.5234 11.4504 46.6259 6.88186 37.9 6.21698C29.2573 5.56161 19.8321 8.74544 14.5964 14.7378C14.3525 15.0174 14.3801 15.4462 14.6599 15.6872C14.9398 15.9283 15.3638 15.9014 15.6075 15.6218C20.5898 9.91913 29.5758 6.92422 37.7974 7.55617C45.936 8.17865 53.3526 12.3756 55.3033 21.1238C56.1582 24.9931 54.9721 30.1801 52.8863 35.5094C52.452 36.6192 51.9788 37.7314 51.4729 38.8476ZM59.2925 55.4014C56.3645 56.0602 53.4342 57.3058 50.6332 59.1992C48.2377 60.818 43.8526 65.1481 41.7023 69.4766C40.3692 72.1592 39.8594 74.8326 41.5469 76.7409C43.602 79.0797 46.0999 79.072 48.4849 77.974C52.3255 76.2187 55.9025 71.736 57.255 68.8925C58.84 65.562 59.6579 60.1869 59.2925 55.4014ZM50.8905 40.0965C49.0478 38.6065 47.3193 37.7346 45.9572 37.1525C33.3803 31.8666 23.5305 40.5439 17.2894 50.7118C15.6438 53.3873 14.0089 58.0455 14.3473 61.9935C14.5632 64.4654 15.574 66.6649 17.9814 67.7826C20.7905 69.0972 24.249 68.3763 27.6516 66.7974C32.9557 64.3357 38.1249 59.7049 40.6593 56.6161C43.6887 52.9191 47.7594 46.6784 50.8905 40.0965Z" fill="#1F1F1F"/>
<path fill-rule="evenodd" clip-rule="evenodd" d="M85.5894 70.53C85.0359 70.1262 83.4387 68.9702 83.1926 68.8021C82.5001 68.3356 82.087 68.1993 81.6516 68.1082C81.3008 68.0397 80.9278 68.0164 80.2891 67.8069C79.9379 67.6873 79.5574 67.8919 79.4437 68.2446C79.3301 68.5974 79.5267 68.9694 79.8778 69.089C80.4589 69.2703 80.8415 69.3344 81.1777 69.3862C81.5638 69.4513 81.8602 69.5179 82.4418 69.9165C82.7265 70.1077 84.1948 71.3442 84.9748 71.7703C85.381 71.9941 85.7235 72.022 85.8888 71.9769C86.1257 71.9127 86.3763 71.7498 86.598 71.4516C86.8809 71.0676 87.1702 70.3788 87.5117 69.6145C87.8308 68.8954 88.2077 68.0895 88.7227 67.4356C89.1592 66.8884 89.6938 66.4568 90.4147 66.369C90.7823 66.327 91.0458 66.0017 91.0041 65.6329C90.9624 65.2641 90.6293 64.996 90.2617 65.038C89.1752 65.1556 88.3317 65.7725 87.6707 66.6044C87.0861 67.3419 86.6483 68.2464 86.2849 69.0686C86.0654 69.559 85.8745 70.0188 85.6909 70.3656C85.6618 70.4217 85.6256 70.4758 85.5894 70.53Z" fill="#1F1F1F"/>
</svg>
