<svg width="105" height="64" viewBox="0 0 105 64" fill="none" xmlns="http://www.w3.org/2000/svg">
<path fill-rule="evenodd" clip-rule="evenodd" d="M29.2933 3.1142C19.9186 2.88258 10.3384 3.34581 1.37467 0.0611138C0.84038 -0.132599 0.252682 0.149552 0.0595169 0.697001C-0.129539 1.24445 0.145828 1.84662 0.680117 2.04455C9.85345 5.40504 19.6515 4.98395 29.244 5.21977C29.8112 5.23661 30.2838 4.77339 30.2961 4.19225C30.3126 3.61111 29.8605 3.13104 29.2933 3.1142Z" fill="#F1FF9D"/>
<path fill-rule="evenodd" clip-rule="evenodd" d="M30.1358 17.0601C27.2137 19.8151 24.0244 21.8789 20.1693 22.9018C19.6186 23.0475 19.2898 23.6224 19.4295 24.185C19.5734 24.7476 20.1364 25.0857 20.683 24.94C24.8752 23.8283 28.348 21.604 31.525 18.6102C31.9442 18.2169 31.973 17.5503 31.5867 17.1224C31.2044 16.695 30.5509 16.6668 30.1358 17.0601Z" fill="#F1FF9D"/>
<path fill-rule="evenodd" clip-rule="evenodd" d="M38.2651 47.1376C36.9253 51.8435 34.2867 55.5249 30.2425 58.1834C29.7658 58.4971 29.6261 59.149 29.9343 59.6379C30.2384 60.1268 30.8755 60.2692 31.3522 59.9555C35.8279 57.0119 38.7542 52.938 40.2379 47.7275C40.3982 47.17 40.0817 46.5846 39.5392 46.4221C38.9925 46.2591 38.4213 46.58 38.2651 47.1376Z" fill="#F1FF9D"/>
<path fill-rule="evenodd" clip-rule="evenodd" d="M84.4401 53.5241C85.2375 52.5627 85.9526 51.5268 86.5609 50.4239C86.8321 49.9328 87.3089 48.8893 87.3828 47.9945C87.465 47.0411 87.1486 46.2367 86.3349 45.8131C85.2539 45.2513 84.3908 45.3098 83.725 45.6497C83.0839 45.976 82.5825 46.6174 82.266 47.4773C81.6619 49.1209 81.7523 51.6329 82.0688 53.0663C81.218 53.9658 80.285 54.7816 79.2863 55.5067C71.8474 60.9075 60.9355 58.9161 52.539 50.8408C49.6004 48.0134 48.1866 42.0757 47.4509 35.6693C46.3042 25.6943 46.9577 14.5533 47.0481 11.2892C47.0687 10.4832 46.9947 10.0048 46.9536 9.90925C46.7605 9.43929 46.4193 9.31717 46.181 9.27085C45.8357 9.20768 45.5604 9.27505 45.3385 9.39296C45.0384 9.55467 44.7918 9.83935 44.6767 10.2786C44.6151 10.5211 44.5987 10.8589 44.6069 11.2189C44.6151 11.4686 44.6644 11.7415 44.6151 11.9205C44.2945 13.0668 43.9082 14.1861 43.5301 15.3134C42.2683 19.103 40.6367 22.6543 38.8242 26.2013C33.0662 37.472 27.4973 49.3808 18.0568 57.9677C17.6335 58.353 17.5924 59.0192 17.9705 59.4538C18.3445 59.8884 18.9939 59.928 19.4213 59.5423C29.0508 50.7856 34.7719 38.6718 40.6449 27.1779C42.1861 24.1606 43.6 21.1391 44.7754 17.9786C44.6562 23.5694 44.7014 31.3082 45.7001 38.1555C46.5879 44.2453 48.277 49.6271 51.1334 52.3757C60.3314 61.2221 72.3283 63.1411 80.4741 57.2244C81.3454 56.5911 82.1756 55.8945 82.9482 55.1391C87.2102 63.0244 96.3343 66.1849 104.398 62.4134C104.916 62.1721 105.142 61.5472 104.908 61.0187C104.669 60.4902 104.061 60.2569 103.543 60.4982C96.2767 63.8966 88.0363 60.8637 84.4401 53.5241ZM83.8442 50.8841C84.1771 50.4024 84.4854 49.9029 84.7731 49.3867C84.9251 49.1096 85.1882 48.5768 85.2991 48.0555C85.3238 47.9334 85.3279 47.7422 85.3279 47.6538C85.0443 47.5106 84.8224 47.4415 84.6416 47.5346C84.4155 47.6491 84.3004 47.9186 84.1894 48.2197C83.91 48.9752 83.8196 49.9766 83.8442 50.8841Z" fill="#F1FF9D"/>
</svg>
