<svg width="106" height="98" viewBox="0 0 106 98" fill="none" xmlns="http://www.w3.org/2000/svg">
<g opacity="0.5">
<path fill-rule="evenodd" clip-rule="evenodd" d="M64.6381 91.1237C68.4687 91.8966 72.2513 92.6948 76.1024 93.3557C76.9304 93.5008 77.7124 92.9497 77.854 92.1266C77.9992 91.2987 77.4432 90.513 76.6202 90.3714C72.7909 89.7112 69.0401 88.9208 65.2363 88.1522C64.414 87.9887 63.6156 88.5208 63.4507 89.3346C63.2872 90.157 63.8158 90.9602 64.6381 91.1237Z" fill="white"/>
<path fill-rule="evenodd" clip-rule="evenodd" d="M54.3569 60.4843C65.091 54.3809 75.51 47.7388 86.1069 41.4103C86.8261 40.9782 87.0588 40.0488 86.6316 39.3331C86.1995 38.6138 85.2737 38.3763 84.5495 38.8049C73.973 45.1256 63.5747 51.76 52.8596 57.8473C52.1291 58.2639 51.8779 59.1876 52.2896 59.9146C52.7062 60.6451 53.6299 60.896 54.3569 60.4843Z" fill="white"/>
<path fill-rule="evenodd" clip-rule="evenodd" d="M19.9246 32.2671C24.5764 22.9221 28.9738 13.4324 33.7299 4.13967C34.1062 3.39503 33.8116 2.48362 33.0705 2.10241C32.3245 1.71766 31.4096 2.0171 31.0283 2.75821C26.2702 12.0644 21.8656 21.5639 17.2117 30.9223C16.8404 31.6705 17.1433 32.5806 17.8914 32.952C18.6445 33.3269 19.5497 33.0202 19.9246 32.2671Z" fill="white"/>
</g>
</svg>
