<svg width="105" height="64" viewBox="0 0 105 64" fill="none" xmlns="http://www.w3.org/2000/svg">
<path fill-rule="evenodd" clip-rule="evenodd" d="M29.2934 3.1142C19.9187 2.88258 10.3385 3.34581 1.37473 0.0611138C0.840441 -0.132599 0.252743 0.149552 0.0595779 0.697001C-0.129478 1.24445 0.145889 1.84662 0.680178 2.04455C9.85351 5.40504 19.6515 4.98395 29.2441 5.21977C29.8113 5.23661 30.2839 4.77339 30.2962 4.19225C30.3126 3.61111 29.8606 3.13104 29.2934 3.1142Z" fill="#1F1F1F"/>
<path fill-rule="evenodd" clip-rule="evenodd" d="M30.1359 17.0601C27.2137 19.8151 24.0244 21.8789 20.1693 22.9018C19.6186 23.0475 19.2898 23.6224 19.4296 24.185C19.5734 24.7476 20.1365 25.0857 20.6831 24.94C24.8752 23.8283 28.3481 21.604 31.525 18.6102C31.9442 18.2169 31.973 17.5503 31.5867 17.1224C31.2045 16.695 30.551 16.6668 30.1359 17.0601Z" fill="#1F1F1F"/>
<path fill-rule="evenodd" clip-rule="evenodd" d="M38.2652 47.1376C36.9254 51.8435 34.2868 55.5249 30.2426 58.1834C29.7659 58.4971 29.6261 59.149 29.9344 59.6379C30.2385 60.1268 30.8756 60.2692 31.3523 59.9555C35.828 57.0119 38.7543 52.938 40.238 47.7275C40.3983 47.17 40.0818 46.5846 39.5393 46.4221C38.9926 46.2591 38.4214 46.58 38.2652 47.1376Z" fill="#1F1F1F"/>
<path fill-rule="evenodd" clip-rule="evenodd" d="M84.4402 53.5241C85.2375 52.5627 85.9527 51.5268 86.5609 50.4239C86.8322 49.9328 87.3089 48.8893 87.3829 47.9945C87.4651 47.0411 87.1487 46.2367 86.3349 45.8131C85.254 45.2513 84.3909 45.3098 83.7251 45.6497C83.0839 45.976 82.5826 46.6174 82.2661 47.4773C81.6619 49.1209 81.7524 51.6329 82.0688 53.0663C81.2181 53.9658 80.2851 54.7816 79.2864 55.5067C71.8475 60.9075 60.9356 58.9161 52.539 50.8408C49.6005 48.0134 48.1866 42.0757 47.451 35.6693C46.3043 25.6943 46.9578 14.5533 47.0482 11.2892C47.0688 10.4832 46.9948 10.0048 46.9537 9.90925C46.7605 9.43929 46.4194 9.31717 46.181 9.27085C45.8358 9.20768 45.5605 9.27505 45.3385 9.39296C45.0385 9.55467 44.7919 9.83935 44.6768 10.2786C44.6151 10.5211 44.5987 10.8589 44.6069 11.2189C44.6152 11.4686 44.6645 11.7415 44.6152 11.9205C44.2946 13.0668 43.9083 14.1861 43.5301 15.3134C42.2684 19.103 40.6367 22.6543 38.8243 26.2013C33.0663 37.472 27.4974 49.3808 18.0569 57.9677C17.6336 58.353 17.5925 59.0192 17.9706 59.4538C18.3446 59.8884 18.9939 59.928 19.4214 59.5423C29.0509 50.7856 34.7719 38.6718 40.645 27.1779C42.1862 24.1606 43.6 21.1391 44.7755 17.9786C44.6563 23.5694 44.7015 31.3082 45.7002 38.1555C46.5879 44.2453 48.2771 49.6271 51.1335 52.3757C60.3315 61.2221 72.3283 63.1411 80.4742 57.2244C81.3455 56.5911 82.1756 55.8945 82.9483 55.1391C87.2103 63.0244 96.3343 66.1849 104.398 62.4134C104.916 62.1721 105.142 61.5472 104.908 61.0187C104.669 60.4902 104.061 60.2569 103.543 60.4982C96.2768 63.8966 88.0364 60.8637 84.4402 53.5241ZM83.8443 50.8841C84.1772 50.4024 84.4854 49.9029 84.7731 49.3867C84.9252 49.1096 85.1882 48.5768 85.2992 48.0555C85.3239 47.9334 85.328 47.7422 85.328 47.6538C85.0444 47.5106 84.8225 47.4415 84.6416 47.5346C84.4156 47.6491 84.3005 47.9186 84.1895 48.2197C83.91 48.9752 83.8196 49.9766 83.8443 50.8841Z" fill="#1F1F1F"/>
</svg>
