<svg width="106" height="65" viewBox="0 0 106 65" fill="none" xmlns="http://www.w3.org/2000/svg">
<path fill-rule="evenodd" clip-rule="evenodd" d="M76.254 61.6835C85.6287 61.9151 95.2089 61.4519 104.173 64.7366C104.707 64.9303 105.295 64.6482 105.488 64.1007C105.677 63.5533 105.401 62.9511 104.867 62.7532C95.6939 59.3927 85.8958 59.8138 76.3033 59.578C75.7361 59.5611 75.2635 60.0243 75.2512 60.6055C75.2347 61.1866 75.6868 61.6667 76.254 61.6835Z" fill="white"/>
<path fill-rule="evenodd" clip-rule="evenodd" d="M75.4114 47.7375C78.3336 44.9825 81.5229 42.9187 85.378 41.8958C85.9287 41.7501 86.2575 41.1752 86.1177 40.6126C85.9739 40.05 85.4109 39.7119 84.8642 39.8576C80.6721 40.9693 77.1992 43.1937 74.0223 46.1874C73.6031 46.5807 73.5743 47.2473 73.9606 47.6752C74.3428 48.1026 74.9963 48.1308 75.4114 47.7375Z" fill="white"/>
<path fill-rule="evenodd" clip-rule="evenodd" d="M67.2822 17.6602C68.622 12.9542 71.2606 9.27286 75.3047 6.61436C75.7815 6.30063 75.9212 5.64875 75.613 5.15984C75.3088 4.67092 74.6718 4.52857 74.195 4.8423C69.7193 7.7859 66.7931 11.8598 65.3094 17.0702C65.1491 17.6278 65.4656 18.2131 66.0081 18.3757C66.5547 18.5387 67.126 18.2177 67.2822 17.6602Z" fill="white"/>
<path fill-rule="evenodd" clip-rule="evenodd" d="M21.1072 11.2736C20.3098 12.235 19.5947 13.2709 18.9864 14.3738C18.7152 14.8648 18.2384 15.9083 18.1645 16.8032C18.0823 17.7566 18.3987 18.561 19.2125 18.9846C20.2934 19.5464 21.1565 19.4878 21.8223 19.148C22.4634 18.8216 22.9648 18.1803 23.2813 17.3204C23.8854 15.6767 23.795 13.1648 23.4785 11.7313C24.3293 10.8318 25.2623 10.0161 26.261 9.29095C33.6999 3.89015 44.6118 5.88161 53.0083 13.9569C55.9469 16.7843 57.3607 22.722 58.0964 29.1284C59.2431 39.1033 58.5896 50.2444 58.4992 53.5084C58.4786 54.3144 58.5526 54.7928 58.5937 54.8884C58.7868 55.3584 59.128 55.4805 59.3663 55.5268C59.7116 55.59 59.9869 55.5226 60.2088 55.4047C60.5089 55.243 60.7555 54.9583 60.8706 54.5191C60.9322 54.2765 60.9486 53.9388 60.9404 53.5788C60.9322 53.329 60.8829 53.0561 60.9322 52.8772C61.2528 51.7309 61.6391 50.6116 62.0172 49.4842C63.279 45.6946 64.9106 42.1434 66.7231 38.5963C72.4811 27.3256 78.05 15.4169 87.4905 6.82996C87.9138 6.44463 87.9549 5.77844 87.5768 5.34384C87.2028 4.90925 86.5534 4.86966 86.126 5.2554C76.4965 14.0121 70.7755 26.1259 64.9024 37.6198C63.3612 40.637 61.9473 43.6586 60.7719 46.819C60.8911 41.2283 60.8459 33.4895 59.8472 26.6421C58.9594 20.5524 57.2703 15.1706 54.4139 12.4219C45.2159 3.57558 33.219 1.65657 25.0732 7.57323C24.2019 8.20659 23.3717 8.90312 22.5991 9.6586C18.3371 1.77323 9.21305 -1.38726 1.1494 2.38424C0.631549 2.62554 0.405508 3.25048 0.639773 3.77898C0.878148 4.30748 1.48639 4.54079 2.00424 4.29949C9.27057 0.901093 17.511 3.93395 21.1072 11.2736ZM21.7031 13.9135C21.3702 14.3953 21.0619 14.8947 20.7742 15.411C20.6222 15.6881 20.3591 16.2208 20.2482 16.7422C20.2235 16.8643 20.2194 17.0555 20.2194 17.1439C20.503 17.2871 20.7249 17.3561 20.9057 17.2631C21.1318 17.1485 21.2469 16.879 21.3579 16.5779C21.6373 15.8224 21.7277 14.821 21.7031 13.9135Z" fill="white"/>
</svg>
