<svg width="106" height="65" viewBox="0 0 106 65" fill="none" xmlns="http://www.w3.org/2000/svg">
<path fill-rule="evenodd" clip-rule="evenodd" d="M76.254 61.6835C85.6287 61.9151 95.2089 61.4519 104.173 64.7366C104.707 64.9303 105.295 64.6481 105.488 64.1007C105.677 63.5532 105.401 62.9511 104.867 62.7532C95.6939 59.3927 85.8958 59.8138 76.3033 59.5779C75.7361 59.5611 75.2635 60.0243 75.2512 60.6055C75.2347 61.1866 75.6868 61.6667 76.254 61.6835Z" fill="#1F1F1F"/>
<path fill-rule="evenodd" clip-rule="evenodd" d="M75.4115 47.7374C78.3336 44.9825 81.5229 42.9186 85.378 41.8958C85.9288 41.7501 86.2575 41.1752 86.1178 40.6126C85.9739 40.05 85.4109 39.7118 84.8643 39.8576C80.6722 40.9693 77.1993 43.1936 74.0223 46.1873C73.6031 46.5807 73.5743 47.2473 73.9607 47.6751C74.3429 48.1026 74.9964 48.1308 75.4115 47.7374Z" fill="#1F1F1F"/>
<path fill-rule="evenodd" clip-rule="evenodd" d="M67.2823 17.6602C68.6221 12.9542 71.2607 9.27283 75.3049 6.61433C75.7816 6.3006 75.9213 5.64872 75.6131 5.15981C75.309 4.67089 74.6719 4.52854 74.1951 4.84227C69.7195 7.78587 66.7932 11.8597 65.3095 17.0702C65.1492 17.6277 65.4657 18.2131 66.0082 18.3757C66.5548 18.5386 67.1261 18.2177 67.2823 17.6602Z" fill="#1F1F1F"/>
<path fill-rule="evenodd" clip-rule="evenodd" d="M21.1072 11.2735C20.3098 12.2349 19.5947 13.2709 18.9864 14.3738C18.7152 14.8648 18.2384 15.9083 18.1645 16.8032C18.0823 17.7566 18.3987 18.5609 19.2125 18.9846C20.2934 19.5463 21.1565 19.4878 21.8223 19.148C22.4634 18.8216 22.9648 18.1802 23.2813 17.3203C23.8854 15.6767 23.795 13.1648 23.4785 11.7313C24.3293 10.8318 25.2623 10.0161 26.261 9.29092C33.6999 3.89012 44.6118 5.88158 53.0083 13.9569C55.9469 16.7842 57.3607 22.7219 58.0964 29.1284C59.2431 39.1033 58.5896 50.2443 58.4992 53.5084C58.4786 54.3144 58.5526 54.7928 58.5937 54.8884C58.7868 55.3583 59.128 55.4805 59.3663 55.5268C59.7116 55.59 59.9869 55.5226 60.2088 55.4047C60.5089 55.243 60.7555 54.9583 60.8706 54.5191C60.9322 54.2765 60.9486 53.9388 60.9404 53.5787C60.9322 53.329 60.8829 53.0561 60.9322 52.8771C61.2528 51.7309 61.6391 50.6115 62.0172 49.4842C63.279 45.6946 64.9106 42.1434 66.7231 38.5963C72.4811 27.3256 78.05 15.4169 87.4905 6.82992C87.9138 6.4446 87.9549 5.7784 87.5768 5.34381C87.2028 4.90922 86.5534 4.86963 86.126 5.25537C76.4965 14.012 70.7755 26.1258 64.9024 37.6197C63.3612 40.637 61.9473 43.6585 60.7719 46.819C60.8911 41.2283 60.8459 33.4894 59.8472 26.6421C58.9594 20.5524 57.2703 15.1705 54.4139 12.4219C45.2159 3.57555 33.219 1.65654 25.0732 7.5732C24.2019 8.20655 23.3717 8.90309 22.5991 9.65857C18.3371 1.7732 9.21305 -1.38729 1.1494 2.38421C0.631549 2.62551 0.405508 3.25045 0.639773 3.77895C0.878148 4.30745 1.48639 4.54076 2.00424 4.29946C9.27057 0.901062 17.511 3.93392 21.1072 11.2735ZM21.7031 13.9135C21.3702 14.3952 21.0619 14.8947 20.7742 15.411C20.6222 15.6881 20.3591 16.2208 20.2482 16.7421C20.2235 16.8643 20.2194 17.0554 20.2194 17.1439C20.503 17.287 20.7249 17.3561 20.9057 17.2631C21.1318 17.1485 21.2469 16.879 21.3579 16.5779C21.6373 15.8224 21.7277 14.821 21.7031 13.9135Z" fill="#1F1F1F"/>
</svg>
