<svg width="172" height="103" viewBox="0 0 172 103" fill="none" xmlns="http://www.w3.org/2000/svg">
<path d="M8.50776 97.625L21.7042 95.962L20.8221 88.9626L22.8568 88.7062L24.0597 98.2518L8.82864 100.171L8.50776 97.625Z" fill="white"/>
<path d="M16.9467 73.9221C16.2119 73.8173 15.5971 73.923 15.1022 74.2391C14.6084 74.5475 14.3136 75.0382 14.2176 75.711C14.1228 76.3762 14.2898 76.9485 14.7186 77.4278C15.1396 77.9061 15.738 78.2479 16.5137 78.4532L16.5733 78.4499L17.2135 73.9601L16.9467 73.9221ZM23.1909 72.5515C23.9337 73.707 24.1866 75.1162 23.9495 76.779C23.7124 78.4419 23.0072 79.679 21.8341 80.4903C20.6621 81.2938 19.2446 81.577 17.5817 81.3399L17.1641 81.2804C15.509 81.0444 14.2106 80.3818 13.2689 79.2927C12.3207 78.1947 11.9552 76.9115 12.1725 75.4431C12.382 73.9736 13.001 72.8978 14.0294 72.2159C15.0512 71.5251 16.351 71.2922 17.9288 71.5171L19.4254 71.7305L18.4213 78.7726L18.476 78.804C19.403 78.8889 20.1797 78.7274 20.806 78.3195C21.4335 77.9039 21.8067 77.2785 21.9258 76.4431C22.0207 75.778 22.0249 75.1946 21.9386 74.6931C21.8534 74.1837 21.6787 73.6656 21.4145 73.1387L23.1893 72.5631L23.1909 72.5515Z" fill="white"/>
<path d="M27.8971 62.2669C27.4283 63.3494 26.7907 64.0651 25.9841 64.414C25.1703 64.7598 24.2616 64.7153 23.2579 64.2808C22.247 63.8431 21.6343 63.1052 21.4196 62.0673C21.205 61.0294 21.4143 59.7792 22.0476 58.3166L22.8392 56.4885L21.9143 56.088C21.3623 55.849 20.8623 55.824 20.4143 56.0132C19.9663 56.2023 19.6182 56.5837 19.3698 57.1572C19.1246 57.7236 19.0612 58.224 19.1796 58.6583C19.2939 59.0824 19.559 59.3845 19.9748 59.5645L18.9924 61.8336L18.9339 61.8211C18.0622 61.4947 17.4867 60.7986 17.2075 59.7327C16.9212 58.6638 17.0481 57.5055 17.5882 56.2581C18.1284 55.0106 18.8722 54.1579 19.8197 53.6998C20.7601 53.2386 21.8038 53.2563 22.9509 53.753L27.6074 55.7692C28.4677 56.1417 29.325 56.3639 30.1792 56.4358L29.1563 58.8278C28.5369 58.764 27.9777 58.6496 27.4788 58.4846C27.846 59.0522 28.0776 59.6676 28.1736 60.3306C28.2624 60.9906 28.1702 61.636 27.8971 62.2669ZM24.2515 61.9271L24.2561 61.9163C24.6648 62.0933 25.0397 62.1024 25.3809 61.9436C25.7251 61.7777 26.0121 61.4294 26.2419 60.8989C26.4716 60.3684 26.5455 59.8044 26.4636 59.2071C26.3817 58.6098 26.1793 58.1433 25.8564 57.8076L24.3078 57.1371L23.4976 59.0083C23.212 59.6679 23.1472 60.2698 23.3031 60.8141C23.455 61.3481 23.7711 61.7191 24.2515 61.9271Z" fill="white"/>
<path d="M35.6642 48.0568L34.1229 50.1089L24.9964 43.2541L26.4039 41.3801L27.8237 42.2413C27.2058 40.9955 27.2487 39.9041 27.9525 38.9671C28.1308 38.7297 28.3247 38.5432 28.5341 38.4074L30.2556 40.0961L29.573 40.9464C28.9865 41.7272 28.9024 42.5092 29.3206 43.2923L35.6642 48.0568Z" fill="white"/>
<path d="M39.5458 27.4691C40.491 26.6998 41.4469 26.3952 42.4134 26.5555C43.3859 26.7108 44.3456 27.3701 45.2925 28.5335L49.8198 34.0958L47.8294 35.7158L43.3169 30.1717C42.7793 29.5113 42.2583 29.1496 41.7539 29.0867C41.2555 29.019 40.7185 29.2193 40.1428 29.6878C39.3794 30.3092 39.0439 31.1161 39.1365 32.1086L44.3665 38.5343L42.3761 40.1544L35.1709 31.3019L36.9961 29.8315L38.1573 31.0169C37.9802 29.5493 38.443 28.3667 39.5458 27.4691Z" fill="white"/>
<path d="M77.6736 23.1261L75.7532 19.8618L69.8663 21.0806L69.3999 24.8392L66.8524 25.3667L69.271 9.18873L71.6464 8.6969L80.2212 22.5986L77.6736 23.1261ZM71.0386 11.9462L70.1544 18.831L74.6069 17.9091L71.096 11.9343L71.0386 11.9462Z" fill="white"/>
<path d="M92.4297 13.4103C91.3478 13.3166 90.528 13.7279 89.9703 14.6441L89.5578 19.4076C89.9341 20.4047 90.6827 20.9518 91.8035 21.0488C92.6597 21.123 93.32 20.8782 93.7844 20.3146C94.2488 19.751 94.5285 18.9205 94.6236 17.823L94.6311 17.6002C94.7383 16.3627 94.612 15.3754 94.2524 14.6385C93.8934 13.8938 93.2858 13.4844 92.4297 13.4103ZM97.1879 17.8216L97.1687 18.0434C97.0225 19.7324 96.517 21.0414 95.6524 21.9702C94.7878 22.8991 93.6589 23.3032 92.2657 23.1826C90.8725 23.0619 89.8667 22.4063 89.2483 21.2157L88.8758 22.6655L86.7276 22.4795L88.147 6.08774L90.7038 6.30915L90.1569 12.6254C90.9677 11.684 92.0035 11.2679 93.2644 11.3771C94.6732 11.4991 95.7196 12.1386 96.4036 13.2957C97.0876 14.4527 97.349 15.9614 97.1879 17.8216Z" fill="white"/>
<path d="M108.397 20.6558C107.991 21.7051 107.867 22.6329 108.024 23.4392C108.184 24.2382 108.687 24.8012 109.532 25.1281C110.377 25.455 111.129 25.3732 111.788 24.8825C112.461 24.3975 113 23.634 113.403 22.592L113.483 22.3844C113.878 21.3643 113.989 20.4482 113.817 19.6363C113.666 18.8154 113.167 18.2415 112.322 17.9146C111.477 17.5876 110.72 17.6717 110.051 18.1669C109.392 18.6575 108.865 19.4129 108.471 20.433L108.397 20.6558ZM106.088 19.5114C106.697 17.9375 107.632 16.8082 108.893 16.1235C110.155 15.4388 111.544 15.3896 113.059 15.9758C114.582 16.5648 115.58 17.5371 116.052 18.8926C116.533 20.2262 116.467 21.6872 115.852 23.2757L115.772 23.4833C115.152 25.0863 114.21 26.2215 112.947 26.8888C111.694 27.5517 110.306 27.5886 108.783 26.9996C107.267 26.4133 106.279 25.449 105.818 24.1064C105.337 22.7728 105.405 21.3081 106.023 19.7124L106.088 19.5114Z" fill="white"/>
<path d="M123.647 35.0569C122.647 34.2939 122.12 33.395 122.064 32.3601C122.013 31.3191 122.478 30.1557 123.459 28.87L127.604 23.4384L129.635 24.9881L125.483 30.4289C124.886 31.2115 124.583 31.8598 124.574 32.3738C124.576 32.8864 124.848 33.3488 125.388 33.7611C126.338 34.4861 127.278 34.658 128.208 34.2766L133.212 27.7177L135.253 29.2745L128.329 38.3488L126.55 36.9911L127.382 35.5331C126.016 36.0734 124.772 35.9147 123.647 35.0569Z" fill="white"/>
<path d="M145.631 35.9773L147.236 37.98L145.078 39.7095L146.36 41.3098L144.879 42.497L143.596 40.8967L138.677 44.8395C137.994 45.3867 137.885 45.9499 138.349 46.529C138.534 46.7607 138.737 46.9386 138.957 47.0629L137.653 48.4531C137.16 48.2376 136.703 47.8677 136.283 47.3434C135.023 45.7705 135.286 44.2683 137.072 42.8368L141.991 38.8941L140.907 37.5407L142.388 36.3535L143.473 37.7069L145.631 35.9773Z" fill="white"/>
<path d="M162.076 62.9867L162.726 66.2507L152.004 72.8909L152.015 72.9484L164.465 74.9854L165.115 78.2494L150.06 81.2481L149.558 78.7311L154.684 77.7102L161.263 76.6628L161.26 76.5916L148.704 74.4442L148.37 72.7662L159.127 65.9996L159.102 65.9329L152.647 67.4814L147.521 68.5023L147.02 65.9853L162.076 62.9867Z" fill="white"/>
<path d="M156.032 97.022C156.768 97.1148 157.381 96.9991 157.871 96.675C158.359 96.3586 158.646 95.8633 158.731 95.1889C158.815 94.5223 158.639 93.9528 158.202 93.4805C157.774 93.0091 157.17 92.6771 156.391 92.4844L156.331 92.4887L155.764 96.9883L156.032 97.022ZM149.81 98.494C149.049 97.3508 148.773 95.9459 148.983 94.2794C149.193 92.6129 149.878 91.3645 151.038 90.5343C152.197 89.7117 153.609 89.4055 155.276 89.6155L155.694 89.6683C157.353 89.8773 158.662 90.5186 159.621 91.5923C160.587 92.6747 160.974 93.9518 160.78 95.4235C160.595 96.8963 159.993 97.9819 158.976 98.6805C157.966 99.3879 156.67 99.6419 155.089 99.4427L153.589 99.2536L154.478 92.1962L154.423 92.1656C153.495 92.0959 152.721 92.27 152.101 92.688C151.481 93.1137 151.118 93.7452 151.012 94.5823C150.928 95.2489 150.933 95.8323 151.028 96.3324C151.121 96.8402 151.304 97.3555 151.577 97.878L149.812 98.4824L149.81 98.494Z" fill="white"/>
</svg>
