<svg width="65" height="70" viewBox="0 0 65 70" fill="none" xmlns="http://www.w3.org/2000/svg">
<path fill-rule="evenodd" clip-rule="evenodd" d="M26.0649 14.706C25.8774 13.5935 25.7362 12.4936 25.6449 11.3936C25.5074 9.74364 25.5924 8.08102 25.5437 6.43102C25.5224 5.73102 25.4387 3.90605 25.4724 3.64355C25.7787 1.35605 27.6249 1.006 28.1649 0.943504C28.4261 0.906004 31.1086 0.606138 31.6874 3.58114C32.3974 7.21864 32.6249 10.8811 32.3737 14.4686C32.9599 17.5186 33.9624 20.556 35.2862 23.306C40.5537 34.2435 50.5911 35.306 61.4661 35.206C63.1386 35.181 64.5274 36.4935 64.6149 38.156C64.7024 39.831 63.4574 41.281 61.7924 41.431C55.7137 42.0185 44.9286 46.8936 41.1999 51.9686C40.4199 53.0311 39.9661 55.5936 39.3661 58.1061C38.5286 61.5936 37.5324 65.0436 36.4162 66.4936C36.2487 66.7186 34.2124 69.0186 33.6049 69.3561C32.1449 70.1561 30.9762 69.6935 30.3124 69.2685C29.6487 68.8435 28.8974 68.0061 28.5974 66.6186C28.2837 65.1685 28.5487 62.1935 28.4999 61.556C28.3224 59.2435 27.8599 54.706 26.9162 50.806C26.4074 48.706 25.8649 46.7685 24.9674 45.806C21.6449 42.2435 16.3324 42.7686 11.8587 43.3561C11.3449 43.4186 10.8312 43.4936 10.3187 43.5561C8.49742 44.0936 6.56363 44.4935 4.51988 44.731C1.43363 45.0935 0.926161 42.256 0.898661 42.0685C0.841161 41.656 0.627389 39.5311 2.95364 38.6811C3.20739 38.5936 5.07991 38.181 5.80116 38.0185C6.80616 37.7935 7.82239 37.6186 8.84239 37.4561C19.3786 34.1811 25.1012 24.981 26.0649 14.706ZM29.6812 26.0686C33.6587 34.2936 39.6949 38.2686 46.8499 40.0686H46.8487C42.3812 42.4061 38.3174 45.3311 36.1636 48.2686C35.3461 49.3811 34.5962 51.6186 33.9199 54.1311C33.5537 51.7936 33.0587 49.306 32.4049 47.181C31.6612 44.756 30.6599 42.7436 29.5424 41.5436C27.3849 39.2311 24.6774 37.9436 21.7661 37.3061C25.2511 34.2186 27.8937 30.3686 29.6812 26.0686Z" fill="#1F1F1F"/>
</svg>
