<svg width="137" height="71" viewBox="0 0 137 71" fill="none" xmlns="http://www.w3.org/2000/svg">
<path fill-rule="evenodd" clip-rule="evenodd" d="M110.944 25.7737C110.435 26.8467 110.002 27.7736 109.776 28.2647C108.405 31.256 104.1 38.2728 102.77 44.1643C101.754 48.6587 102.461 52.5134 106.507 54.1374C110.183 55.6134 114.357 53.8409 118.355 50.1488C126.959 42.2025 134.992 25.5066 136.117 19.836C136.239 19.2169 135.839 18.6169 135.219 18.4944C134.603 18.3724 134.003 18.7729 133.881 19.392C132.8 24.8335 125.067 40.8452 116.807 48.474C113.578 51.4553 110.325 53.2127 107.355 52.0197C104.424 50.8438 104.258 47.9259 104.995 44.6678C106.288 38.9338 110.514 32.1267 111.85 29.2148C112.686 27.3889 116.073 20.5153 116.222 19.8563C116.408 19.0312 115.852 18.6678 115.661 18.5623C115.512 18.4803 114.747 18.1192 114.121 18.9462C105.195 30.7324 83.3403 42.6404 61.4452 45.5222C39.7425 48.379 17.9409 42.3175 8.8547 18.0368C8.63289 17.4475 7.97488 17.1482 7.38595 17.3671C6.79663 17.5889 6.49722 18.2469 6.71904 18.8363C16.2398 44.2769 39.0054 50.7769 61.7415 47.7844C80.9033 45.2629 100.001 35.9611 110.944 25.7737Z" fill="#1F1F1F"/>
<path fill-rule="evenodd" clip-rule="evenodd" d="M8.42991 19.6334C10.7518 20.9904 13.0205 22.4155 15.4491 23.593C21.919 26.731 29.3063 28.6213 36.518 28.3623C37.1492 28.3382 37.6396 27.8089 37.618 27.181C37.5939 26.5499 37.0646 26.0595 36.4367 26.0812C29.5924 26.331 22.5837 24.5176 16.4457 21.5399C13.6664 20.1908 11.0966 18.5109 8.41437 16.9896C8.27957 16.9153 7.13427 16.2186 6.85215 16.138C6.19631 15.9465 5.8024 16.286 5.64029 16.4665C5.50296 16.6156 5.37425 16.8271 5.323 17.1279C5.28225 17.3749 5.3151 17.862 5.49751 18.5038C6.07545 20.5617 8.11223 25.1682 8.36647 25.9597C11.2829 35.0322 12.473 43.9624 13.9611 53.3328C14.0621 53.9544 14.6471 54.3801 15.2683 54.2819C15.8896 54.1838 16.3124 53.5984 16.2143 52.9771C14.7081 43.4879 13.4902 34.4464 10.537 25.264C10.3641 24.7194 9.2399 21.756 8.42991 19.6334Z" fill="#1F1F1F"/>
</svg>
