<svg width="106" height="98" viewBox="0 0 106 98" fill="none" xmlns="http://www.w3.org/2000/svg">
<g opacity="0.5">
<path fill-rule="evenodd" clip-rule="evenodd" d="M64.6381 90.6032C68.4687 91.3761 72.2513 92.1743 76.1024 92.8352C76.9304 92.9803 77.7124 92.4292 77.854 91.6061C77.9992 90.7781 77.4432 89.9925 76.6202 89.8509C72.7909 89.1907 69.0401 88.4003 65.2363 87.6317C64.414 87.4682 63.6156 88.0003 63.4507 88.8141C63.2872 89.6365 63.8158 90.4397 64.6381 90.6032Z" fill="#F1FF9D"/>
<path fill-rule="evenodd" clip-rule="evenodd" d="M54.3568 59.964C65.0909 53.8605 75.5099 47.2184 86.1068 40.89C86.8261 40.4578 87.0587 39.5284 86.6315 38.8127C86.1994 38.0934 85.2736 37.8559 84.5494 38.2845C73.973 44.6052 63.5746 51.2396 52.8595 57.3269C52.129 57.7435 51.8779 58.6672 52.2895 59.3942C52.7062 60.1247 53.6298 60.3756 54.3568 59.964Z" fill="#F1FF9D"/>
<path fill-rule="evenodd" clip-rule="evenodd" d="M19.9246 31.7467C24.5764 22.4017 28.9739 12.912 33.7299 3.61928C34.1062 2.87465 33.8117 1.96324 33.0706 1.58202C32.3246 1.19728 31.4096 1.49671 31.0284 2.23782C26.2702 11.544 21.8657 21.0436 17.2118 30.402C16.8404 31.1501 17.1433 32.0602 17.8915 32.4316C18.6446 32.8065 19.5498 32.4998 19.9246 31.7467Z" fill="#F1FF9D"/>
</g>
</svg>
